<?xml version="1.0" encoding="UTF-8"?><svg xmlns="http://www.w3.org/2000/svg" xmlns:xlink="http://www.w3.org/1999/xlink" height="198.4" preserveAspectRatio="xMidYMid meet" version="1.1" viewBox="160.7 113.4 110.8 198.4" width="110.8" zoomAndPan="magnify">
 <g id="surface1">
  <g id="change1_1"><path d="m271.56 296.29c0 8.57-6.95 15.52-15.52 15.52h-79.81c-8.57 0-15.52-6.95-15.52-15.52v-167.38c0-8.57 6.95-15.52 15.52-15.52h79.81c8.57 0 15.52 6.95 15.52 15.52v167.38" fill="#84878d"/></g>
  <path d="m2654.9 1380.7c0-76.4-61.9-138.2-138.2-138.2h-710.8c-76.3 0-138.2 61.8-138.2 138.2v1490.6c0 76.4 61.9 138.2 138.2 138.2h710.8c76.3 0 138.2-61.8 138.2-138.2zm0 0" fill="none" stroke="#4f5061" stroke-linecap="round" stroke-linejoin="round" stroke-miterlimit="10" stroke-width="30" transform="matrix(.1 0 0 -.1 0 425.2)"/>
  <g id="change2_1"><path d="m251.2 172.11c0 19.37-15.7 35.07-35.07 35.07-19.36 0-35.06-15.7-35.06-35.07 0-19.36 15.7-35.06 35.06-35.06 19.37 0 35.07 15.7 35.07 35.06" fill="#4f5061"/></g>
  <path d="m2560 2530.9c0-220.2-178.5-398.7-398.7-398.7-220.1 0-398.6 178.5-398.6 398.7 0 220.1 178.5 398.6 398.6 398.6 220.2 0 398.7-178.5 398.7-398.6zm0 0" fill="none" stroke="#4f5061" stroke-linecap="round" stroke-linejoin="round" stroke-miterlimit="10" stroke-width="30" transform="matrix(.1 0 0 -.1 0 425.2)"/>
  <g id="change3_1"><path d="m228.47 172.11c0 6.82-5.52 12.34-12.34 12.34-6.81 0-12.33-5.52-12.33-12.34 0-6.81 5.52-12.33 12.33-12.33 6.82 0 12.34 5.52 12.34 12.33" fill="#423f45"/></g>
  <g id="change2_2"><path d="m242.33 255.25c0 14.47-11.73 26.2-26.2 26.2-14.46 0-26.19-11.73-26.19-26.2 0-14.46 11.73-26.19 26.19-26.19 14.47 0 26.2 11.73 26.2 26.19" fill="#4f5061"/></g>
  <path d="m2497.2 1699.5c0-185.5-150.4-335.9-335.9-335.9-185.4 0-335.8 150.4-335.8 335.9s150.4 335.8 335.8 335.8c185.5 0 335.9-150.3 335.9-335.8zm0 0" fill="none" stroke="#4f5061" stroke-linecap="round" stroke-linejoin="round" stroke-miterlimit="10" stroke-width="30" transform="matrix(.1 0 0 -.1 0 425.2)"/>
  <g id="change3_2"><path d="m226.81 255.25c0 5.9-4.78 10.68-10.68 10.68-5.89 0-10.67-4.78-10.67-10.68 0-5.89 4.78-10.67 10.67-10.67 5.9 0 10.68 4.78 10.68 10.67" fill="#423f45"/></g>
 </g>
</svg>